<svg xmlns="http://www.w3.org/2000/svg" xmlns:xlink="http://www.w3.org/1999/xlink" width="30" height="22" viewBox="0 0 30 22">
  <defs>
    <clipPath id="clip-path">
      <rect width="30" height="22" fill="none"/>
    </clipPath>
  </defs>
  <g id="Cards" clip-path="url(#clip-path)">
    <g id="Group_19" data-name="Group 19" transform="translate(0 2.725)">
      <path id="Path_20" data-name="Path 20" d="M663.789,884.276H641.4a2.4,2.4,0,0,1-2.366-2.435V867.435A2.4,2.4,0,0,1,641.4,865h22.389a2.4,2.4,0,0,1,2.367,2.434v14.406A2.4,2.4,0,0,1,663.789,884.276ZM641.4,865.883a1.533,1.533,0,0,0-1.51,1.552v14.406a1.533,1.533,0,0,0,1.51,1.553h22.389a1.533,1.533,0,0,0,1.51-1.553V867.435a1.533,1.533,0,0,0-1.51-1.552Z" transform="translate(-639.033 -865.001)" fill="#35477d"/>
    </g>
    <g id="Group_20" data-name="Group 20" transform="translate(2.879)">
      <path id="Path_21" data-name="Path 21" d="M666.667,881.551H665.5V867.322a1.533,1.533,0,0,0-1.51-1.552H641.912V864.71a2.4,2.4,0,0,1,2.366-2.434h22.39a2.4,2.4,0,0,1,2.366,2.434v14.407A2.4,2.4,0,0,1,666.667,881.551Zm-.315-.882h.315a1.533,1.533,0,0,0,1.509-1.552V864.71a1.533,1.533,0,0,0-1.509-1.552h-22.39a1.533,1.533,0,0,0-1.509,1.552v.177h21.217a2.4,2.4,0,0,1,2.367,2.434Z" transform="translate(-641.912 -862.276)" fill="#35477d"/>
    </g>
  </g>
</svg>
