<svg xmlns="http://www.w3.org/2000/svg" xmlns:xlink="http://www.w3.org/1999/xlink" width="26.43" height="33" viewBox="0 0 26.43 33">
  <defs>
    <clipPath id="clip-path">
      <rect width="26.43" height="33" fill="none"/>
    </clipPath>
  </defs>
  <g id="Pass" clip-path="url(#clip-path)">
    <g id="Group_14" data-name="Group 14" transform="translate(-433.633 -857.195)">
      <path id="Path_16" data-name="Path 16" d="M456.179,889.7H437.516a3.387,3.387,0,0,1-3.383-3.384V872.532a2.255,2.255,0,0,1,2.252-2.253H457.31a2.256,2.256,0,0,1,2.253,2.253v13.779A3.388,3.388,0,0,1,456.179,889.7Zm-19.794-18.547A1.385,1.385,0,0,0,435,872.532v13.779a2.517,2.517,0,0,0,2.514,2.515h18.663a2.518,2.518,0,0,0,2.515-2.515V872.532a1.386,1.386,0,0,0-1.384-1.384Z" fill="#6c5b7b" stroke="rgba(0,0,0,0)" stroke-width="1"/>
    </g>
    <g id="Group_15" data-name="Group 15" transform="translate(-433.633 -857.195)">
      <path id="Path_17" data-name="Path 17" d="M455.114,870.714h-.85v-5.572c0-3.637-3.325-6.6-7.413-6.6A7.835,7.835,0,0,0,441.6,860.5a6.207,6.207,0,0,0-2.159,4.643v5.572h-.851v-5.572a7.044,7.044,0,0,1,2.443-5.277,8.688,8.688,0,0,1,5.82-2.17c4.556,0,8.263,3.341,8.263,7.447Z" fill="#6c5b7b" stroke="rgba(0,0,0,0)" stroke-width="1"/>
    </g>
    <g id="Group_16" data-name="Group 16" transform="translate(-433.633 -857.195)">
      <path id="Path_18" data-name="Path 18" d="M446.848,878.471a1.182,1.182,0,1,1,1.27-1.179A1.228,1.228,0,0,1,446.848,878.471Zm0-1.909a.734.734,0,1,0,.82.73A.78.78,0,0,0,446.848,876.562Z" fill="#6c5b7b" stroke="rgba(0,0,0,0)" stroke-width="1"/>
    </g>
    <g id="Group_17" data-name="Group 17" transform="translate(-433.633 -857.195)">
      <path id="Path_19" data-name="Path 19" d="M448.257,881.728h-2.818l.585-3.773.444.068-.5,3.255h1.782l-.406-3.183.446-.057Z" fill="#6c5b7b" stroke="rgba(0,0,0,0)" stroke-width="1"/>
    </g>
  </g>
</svg>
