<svg xmlns="http://www.w3.org/2000/svg" xmlns:xlink="http://www.w3.org/1999/xlink" width="40" height="15.417" viewBox="0 0 40 15.417">
  <defs>
    <clipPath id="clip-path">
      <rect width="40" height="15.417" fill="none"/>
    </clipPath>
  </defs>
  <g id="Decks" clip-path="url(#clip-path)">
    <g id="Group_6" data-name="Group 6" transform="translate(-699.21 -865.662)">
      <path id="Path_10" data-name="Path 10" d="M724.513,874.052h-23.9a1.384,1.384,0,0,1-1.379-1.1,1.326,1.326,0,0,1,.809-1.511l13.29-5.665a1.435,1.435,0,0,1,.565-.113h23.9a1.383,1.383,0,0,1,1.379,1.1,1.33,1.33,0,0,1-.815,1.512l-13.289,5.665A1.406,1.406,0,0,1,724.513,874.052Zm-10.61-7.364a.405.405,0,0,0-.161.03l-13.291,5.665a.3.3,0,0,0-.207.363.349.349,0,0,0,.374.281h23.9a.379.379,0,0,0,.153-.026l13.3-5.67a.306.306,0,0,0,.211-.363.348.348,0,0,0-.374-.28Z" fill="#6c5b7b"/>
    </g>
    <g id="Group_7" data-name="Group 7" transform="translate(-699.21 -865.662)">
      <path id="Path_11" data-name="Path 11" d="M724.513,876.4h-23.9a1.383,1.383,0,0,1-1.379-1.1,1.327,1.327,0,0,1,.809-1.512l1.878-.756h22.587a.379.379,0,0,0,.153-.026l11.835-5h1.3a1.382,1.382,0,0,1,1.379,1.1,1.329,1.329,0,0,1-.815,1.511l-13.289,5.671A1.513,1.513,0,0,1,724.513,876.4Zm-22.483-2.343-1.579.674a.3.3,0,0,0-.207.363.349.349,0,0,0,.374.281h23.9a.472.472,0,0,0,.171-.035l13.282-5.667a.306.306,0,0,0,.211-.363.349.349,0,0,0-.374-.28h-1.2l-11.528,4.915a1.406,1.406,0,0,1-.565.112Z" fill="#6c5b7b"/>
    </g>
    <g id="Group_8" data-name="Group 8" transform="translate(-699.21 -865.662)">
      <path id="Path_12" data-name="Path 12" d="M724.513,878.617h-23.9a1.383,1.383,0,0,1-1.379-1.1,1.327,1.327,0,0,1,.809-1.512l1.6-.635h22.869a.472.472,0,0,0,.171-.035l12.088-5.113H737.8a1.382,1.382,0,0,1,1.379,1.1,1.329,1.329,0,0,1-.815,1.511L725.078,878.5A1.4,1.4,0,0,1,724.513,878.617ZM701.749,876.4l-1.3.553a.3.3,0,0,0-.206.363.349.349,0,0,0,.374.281h23.9a.37.37,0,0,0,.151-.031l13.3-5.671a.306.306,0,0,0,.211-.363.349.349,0,0,0-.374-.28h-.926l-11.8,5.036a1.513,1.513,0,0,1-.565.112Z" fill="#6c5b7b"/>
    </g>
    <g id="Group_9" data-name="Group 9" transform="translate(-699.21 -865.662)">
      <path id="Path_13" data-name="Path 13" d="M724.513,881.079h-23.9a1.384,1.384,0,0,1-1.379-1.1,1.326,1.326,0,0,1,.809-1.511l1.6-.635h22.869a.472.472,0,0,0,.171-.035l12.088-5.113H737.8a1.382,1.382,0,0,1,1.379,1.1,1.329,1.329,0,0,1-.815,1.511l-13.289,5.665A1.38,1.38,0,0,1,724.513,881.079Zm-22.764-2.222-1.3.553a.3.3,0,0,0-.206.363.349.349,0,0,0,.374.281h23.9a.37.37,0,0,0,.151-.031l13.3-5.671a.306.306,0,0,0,.211-.363.348.348,0,0,0-.374-.28h-.926l-11.8,5.036a1.512,1.512,0,0,1-.565.112Z" fill="#6c5b7b"/>
    </g>
  </g>
</svg>
