<svg xmlns="http://www.w3.org/2000/svg" xmlns:xlink="http://www.w3.org/1999/xlink" width="18" height="18" viewBox="0 0 18 18">
  <defs>
    <clipPath id="clip-path">
      <rect width="18" height="18" fill="none"/>
    </clipPath>
  </defs>
  <g id="Home" clip-path="url(#clip-path)">
    <g id="Path_92" data-name="Path 92" transform="translate(-452.829 -152.692)" fill="none" stroke-miterlimit="10">
      <path d="M470.408,159.719h-2.033l0,10.043a.981.981,0,0,1-1.027.929h-3.415l0-5.042h-4.318l0,5.042h-3.313a.981.981,0,0,1-1.027-.929l0-10.043H453.25a.376.376,0,0,1-.267-.673l8.277-6.17a.97.97,0,0,1,1.139,0l8.277,6.17A.376.376,0,0,1,470.408,159.719Z" stroke="none"/>
      <path d="M 461.8294677734375 153.3915252685547 C 461.7718811035156 153.3915252685547 461.7182312011719 153.4078826904297 461.6784362792969 153.4375610351562 L 454.1903686523438 159.0193481445312 L 455.2763061523438 159.0193481445312 L 455.9760437011719 159.0193481445312 L 455.976318359375 159.7190856933594 L 455.97998046875 169.7624969482422 C 455.97998046875 169.8708038330078 456.1141357421875 169.9915008544922 456.306640625 169.9915008544922 L 458.9190673828125 169.9915008544922 L 458.9158935546875 165.6496734619141 L 458.9154052734375 164.9491729736328 L 459.6159057617188 164.9491729736328 L 463.9337158203125 164.9491729736328 L 464.6332092285156 164.9491729736328 L 464.6337280273438 165.6486511230469 L 464.6368713378906 169.9915008544922 L 467.352294921875 169.9915008544922 C 467.5447998046875 169.9915008544922 467.678955078125 169.8708038330078 467.678955078125 169.7627563476562 L 467.6752319335938 159.7196044921875 L 467.6749877929688 159.0193481445312 L 468.375244140625 159.0193481445312 L 469.4684448242188 159.0193481445312 L 461.9804382324219 153.4375305175781 C 461.9406127929688 153.4078674316406 461.8869934082031 153.3915252685547 461.8294677734375 153.3915252685547 M 461.8294677734375 152.6915283203125 C 462.031494140625 152.6915283203125 462.2335510253906 152.7531280517578 462.3988037109375 152.8763275146484 L 470.6754150390625 159.0459747314453 C 470.979736328125 159.2726135253906 470.8028564453125 159.7193450927734 470.408203125 159.7193450927734 L 468.375244140625 159.7193450927734 L 468.3789672851562 169.7624969482422 C 468.3789672851562 170.2757568359375 467.91943359375 170.6914978027344 467.352294921875 170.6914978027344 L 463.9373779296875 170.6914978027344 L 463.9337158203125 165.649169921875 L 459.6159057617188 165.649169921875 L 459.6195678710938 170.6914978027344 L 456.306640625 170.6914978027344 C 455.7393798828125 170.6914978027344 455.2799682617188 170.2757568359375 455.2799682617188 169.7624969482422 L 455.2763061523438 159.7193450927734 L 453.2499389648438 159.7193450927734 C 452.8560180664062 159.7193450927734 452.6790771484375 159.2726135253906 452.9833984375 159.0459747314453 L 461.2600708007812 152.8763275146484 C 461.4253540039062 152.7531280517578 461.6274108886719 152.6915283203125 461.8294677734375 152.6915283203125 Z" stroke="none" fill="#6c5b7b"/>
    </g>
    <path id="Path_93" data-name="Path 93" d="M465.19,165.111" transform="translate(-456.19 -156.928)" fill="none" stroke="#6c5b7b" stroke-miterlimit="10" stroke-width="0.7"/>
  </g>
</svg>
