<svg xmlns="http://www.w3.org/2000/svg" width="22" height="22" viewBox="0 0 26.942 25">
  <g id="Group_4" data-name="Group 4" transform="translate(-572.167 -861.194)">
    <path id="Path_9" data-name="Path 9" d="M580.759,886.194a1.64,1.64,0,0,1-.813-.216l-2.037-1.164a1.646,1.646,0,0,1-.6-2.241l1.211-2.1a9.74,9.74,0,0,1-2.29-3.943H573.8a1.639,1.639,0,0,1-1.637-1.637v-2.346a1.639,1.639,0,0,1,1.637-1.637h2.421a9.765,9.765,0,0,1,2.183-3.83l-1.241-2.084a1.635,1.635,0,0,1,.573-2.248l2.012-1.2a1.645,1.645,0,0,1,2.248.565l1.236,2.084a9.855,9.855,0,0,1,4.565-.053l1.189-2.109a1.635,1.635,0,0,1,2.228-.627l2.047,1.153a1.641,1.641,0,0,1,.62,2.234l-1.189,2.114a9.725,9.725,0,0,1,2.318,3.922l2.427-.015a1.579,1.579,0,0,1,1.163.475,1.606,1.606,0,0,1,.482,1.15l.023,2.342a1.634,1.634,0,0,1-1.631,1.652l-2.417.021a9.766,9.766,0,0,1-2.258,3.96l1.226,2.094a1.635,1.635,0,0,1-.592,2.243l-2.026,1.186a1.639,1.639,0,0,1-2.242-.589l-1.221-2.089a9.9,9.9,0,0,1-4.558.017l-1.205,2.1A1.644,1.644,0,0,1,580.759,886.194ZM573.8,871.71a.833.833,0,0,0-.832.832v2.346a.833.833,0,0,0,.832.832h3.037l.078.3a8.941,8.941,0,0,0,2.38,4.1l.221.218L578,882.974a.835.835,0,0,0-.081.634.822.822,0,0,0,.389.507l2.035,1.164a.838.838,0,0,0,1.142-.308L583,882.339l.3.081a9.073,9.073,0,0,0,4.737-.017l.3-.082,1.531,2.619a.834.834,0,0,0,.512.387.822.822,0,0,0,.627-.086l2.031-1.189a.816.816,0,0,0,.386-.5.833.833,0,0,0-.086-.638l-1.537-2.625.219-.22a8.952,8.952,0,0,0,2.346-4.114l.077-.3,3.036-.026a.816.816,0,0,0,.587-.244.83.83,0,0,0,.242-.6l-.023-2.345a.815.815,0,0,0-.243-.583.824.824,0,0,0-.591-.241l-3.043.019-.081-.3a8.936,8.936,0,0,0-2.407-4.075l-.223-.216,1.491-2.651a.825.825,0,0,0-.315-1.138l-2.046-1.151a.818.818,0,0,0-.629-.076.828.828,0,0,0-.5.395h0l-1.492,2.646-.3-.079a9.024,9.024,0,0,0-4.74.056l-.3.088-1.552-2.615a.838.838,0,0,0-1.144-.287l-2.012,1.2a.829.829,0,0,0-.293,1.144l1.556,2.613-.217.222a8.96,8.96,0,0,0-2.279,4l-.079.3Zm11.83,8.449a6.448,6.448,0,1,1,6.151-6.441A6.313,6.313,0,0,1,585.634,880.159Zm0-12.077a5.644,5.644,0,1,0,5.346,5.636A5.507,5.507,0,0,0,585.634,868.082Z" fill="#6c5b7b"/>
  </g>
</svg>
