<svg xmlns="http://www.w3.org/2000/svg" xmlns:xlink="http://www.w3.org/1999/xlink" width="22.182" height="25.004" viewBox="0 0 22.182 25.004">
  <defs>
    <clipPath id="clip-path">
      <rect width="22.182" height="25.004" fill="none"/>
    </clipPath>
  </defs>
  <g id="Progress" clip-path="url(#clip-path)">
    <g id="Group_27" data-name="Group 27" transform="translate(-763.273 -865.893)">
      <path id="Path_26" data-name="Path 26" d="M779.536,866.142l1.73-.247a.2.2,0,0,1,.209.27l-.682,1.646a.2.2,0,0,1-.339.042l-1.047-1.4A.2.2,0,0,1,779.536,866.142Z" fill="#6c5b7b"/>
    </g>
    <g id="Group_28" data-name="Group 28" transform="translate(-763.273 -865.893)">
      <path id="Path_27" data-name="Path 27" d="M771.868,890.9h-.89a1.825,1.825,0,0,1-1.823-1.823v-9.3a1.825,1.825,0,0,1,1.823-1.823h.89a1.825,1.825,0,0,1,1.823,1.823v9.3A1.825,1.825,0,0,1,771.868,890.9Zm-.89-12.1a.97.97,0,0,0-.969.97v9.3a.97.97,0,0,0,.969.97h.89a.971.971,0,0,0,.97-.97v-9.3a.971.971,0,0,0-.97-.97Z" fill="#6c5b7b"/>
    </g>
    <g id="Group_29" data-name="Group 29" transform="translate(-763.273 -865.893)">
      <path id="Path_28" data-name="Path 28" d="M765.986,890.9h-.89a1.824,1.824,0,0,1-1.823-1.823v-4.9a1.825,1.825,0,0,1,1.823-1.823h.89a1.825,1.825,0,0,1,1.823,1.823v4.9A1.825,1.825,0,0,1,765.986,890.9Zm-.89-7.695a.971.971,0,0,0-.97.97v4.9a.971.971,0,0,0,.97.97h.89a.97.97,0,0,0,.969-.97v-4.9a.97.97,0,0,0-.969-.97Z" fill="#6c5b7b"/>
    </g>
    <g id="Group_30" data-name="Group 30" transform="translate(-763.273 -865.893)">
      <path id="Path_29" data-name="Path 29" d="M777.75,890.9h-.89a1.825,1.825,0,0,1-1.823-1.823v-12.6a1.825,1.825,0,0,1,1.823-1.823h.89a1.825,1.825,0,0,1,1.823,1.823v12.6A1.825,1.825,0,0,1,777.75,890.9Zm-.89-15.389a.971.971,0,0,0-.97.97v12.6a.971.971,0,0,0,.97.97h.89a.97.97,0,0,0,.969-.97v-12.6a.97.97,0,0,0-.969-.97Z" fill="#6c5b7b"/>
    </g>
    <g id="Group_31" data-name="Group 31" transform="translate(-763.273 -865.893)">
      <path id="Path_30" data-name="Path 30" d="M783.632,890.9h-.89a1.825,1.825,0,0,1-1.823-1.823V871.14a1.826,1.826,0,0,1,1.823-1.824h.89a1.826,1.826,0,0,1,1.823,1.824v17.934A1.825,1.825,0,0,1,783.632,890.9Zm-.89-20.727a.97.97,0,0,0-.969.97v17.934a.97.97,0,0,0,.969.97h.89a.971.971,0,0,0,.97-.97V871.14a.971.971,0,0,0-.97-.97Z" fill="#6c5b7b"/>
    </g>
    <g id="Group_32" data-name="Group 32" transform="translate(-763.273 -865.893)">
      <path id="Path_31" data-name="Path 31" d="M763.9,878.753l-.4-.757L771,874.088v-2.444l9.063-5.187.424.741-8.634,4.941v2.466Z" fill="#6c5b7b"/>
    </g>
  </g>
</svg>
