<svg xmlns="http://www.w3.org/2000/svg" xmlns:xlink="http://www.w3.org/1999/xlink" width="24.038" height="33" viewBox="0 0 24.038 33">
  <defs>
    <clipPath id="clip-path">
      <rect width="24.038" height="33" fill="none"/>
    </clipPath>
  </defs>
  <g id="User" clip-path="url(#clip-path)">
    <g id="Group_11" data-name="Group 11" transform="translate(-399.533 -858.163)">
      <path id="Path_14" data-name="Path 14" d="M411.552,871.692a6.515,6.515,0,1,1,6.568-6.514A6.548,6.548,0,0,1,411.552,871.692Zm0-12.124a5.61,5.61,0,1,0,5.663,5.61A5.643,5.643,0,0,0,411.552,859.568Z" fill="#6c5b7b" stroke="rgba(0,0,0,0)" stroke-width="1"/>
    </g>
    <g id="Group_12" data-name="Group 12" transform="translate(-399.533 -858.163)">
      <path id="Path_15" data-name="Path 15" d="M411.557,890.663a21.824,21.824,0,0,1-10.3-2.542l-.13-.068-.065-.133a9.932,9.932,0,0,1-1.024-4.4c0-5.88,5.17-10.664,11.524-10.664s11.514,4.784,11.514,10.664a9.921,9.921,0,0,1-1.024,4.4l-.065.133-.13.068A22.109,22.109,0,0,1,411.557,890.663Zm-9.751-3.273a20.941,20.941,0,0,0,9.751,2.368,21.219,21.219,0,0,0,9.741-2.368,9.026,9.026,0,0,0,.868-3.869c0-5.381-4.759-9.758-10.609-9.758s-10.618,4.377-10.618,9.758A9.021,9.021,0,0,0,401.806,887.39Z" fill="#6c5b7b" stroke="rgba(0,0,0,0)" stroke-width="1"/>
    </g>
  </g>
</svg>
