<svg xmlns="http://www.w3.org/2000/svg" width="13" height="12.863" viewBox="0 0 13 12.863">
  <g id="Group_57" data-name="Group 57" transform="translate(0 0.329)">
    <path id="Path_62" data-name="Path 62" d="M467.356,127.927a5.65,5.65,0,0,1-10.928,0" transform="translate(-455.595 -119.936)" fill="none" stroke="#6c5b7b" stroke-miterlimit="10" stroke-width="0.658"/>
    <path id="Path_63" data-name="Path 63" d="M456.106,123.281c.7-2.962,3.022-5.14,5.786-5.14s5.087,2.178,5.786,5.14" transform="translate(-455.595 -118.141)" fill="none" stroke="#6c5b7b" stroke-miterlimit="10" stroke-width="0.658"/>
    <path id="Path_64" data-name="Path 64" d="M468.895,123.435l1.356-.432a.2.2,0,0,1,.251.232l-.326,1.413a.2.2,0,0,1-.327.1l-1.03-.982A.2.2,0,0,1,468.895,123.435Z" transform="translate(-457.507 -118.855)" fill="#6c5b7b"/>
    <path id="Path_65" data-name="Path 65" d="M456.006,126.718l1.193.775a.2.2,0,0,1-.02.341l-1.3.644a.2.2,0,0,1-.284-.191l.107-1.419A.2.2,0,0,1,456.006,126.718Z" transform="translate(-455.595 -119.399)" fill="#6c5b7b"/>
  </g>
</svg>
