<svg xmlns="http://www.w3.org/2000/svg" xmlns:xlink="http://www.w3.org/1999/xlink" width="29.205" height="24" viewBox="0 0 29.205 24">
  <defs>
    <clipPath id="clip-path">
      <rect width="29.205" height="24" fill="none"/>
    </clipPath>
  </defs>
  <g id="Mail" clip-path="url(#clip-path)">
    <g id="Group_1" data-name="Group 1" transform="translate(-465.428 -864.562)">
      <path id="Path_7" data-name="Path 7" d="M491.122,888.062H468.938a3.013,3.013,0,0,1-3.01-3.011V867.129a2,2,0,0,1,.382-1.184,1.788,1.788,0,0,1,.408-.417,1.952,1.952,0,0,1,1.233-.431h24.158a1.97,1.97,0,0,1,1.252.446,1.726,1.726,0,0,1,.4.411,1.988,1.988,0,0,1,.376,1.175v17.922A3.014,3.014,0,0,1,491.122,888.062ZM467.951,865.98a1.082,1.082,0,0,0-.69.244.986.986,0,0,0-.231.23,1.136,1.136,0,0,0-.219.675v17.922a2.129,2.129,0,0,0,2.127,2.128h22.184a2.13,2.13,0,0,0,2.128-2.128V867.129a1.126,1.126,0,0,0-.213-.665.949.949,0,0,0-.217-.225,1.107,1.107,0,0,0-.711-.259Z" fill="#6c5b7b" stroke="rgba(0,0,0,0)" stroke-width="1"/>
    </g>
    <g id="Group_2" data-name="Group 2" transform="translate(-465.428 -864.562)">
      <path id="Path_8" data-name="Path 8" d="M480.031,877.162a3.589,3.589,0,0,1-2.446-.925l-11.274-10.428.267-.322a1.717,1.717,0,0,1,.418-.361l.106-.064H492.96l.106.065a1.693,1.693,0,0,1,.417.361l.266.322-11.275,10.428A3.583,3.583,0,0,1,480.031,877.162Zm-12.274-11.217,10.428,9.644a2.822,2.822,0,0,0,3.689,0l10.43-9.646Z" fill="#6c5b7b" stroke="rgba(0,0,0,0)" stroke-width="1"/>
    </g>
  </g>
</svg>
