<svg xmlns="http://www.w3.org/2000/svg" xmlns:xlink="http://www.w3.org/1999/xlink" width="111.659" height="60" viewBox="0 0 111.659 60">
  <defs>
    <clipPath id="clip-path">
      <rect width="111.659" height="60" fill="none"/>
    </clipPath>
  </defs>
  <g id="Logosmall" clip-path="url(#clip-path)">
    <path id="Path_55" data-name="Path 55" d="M415,868h78.839l3.774,3.631H418.706v24.537h14.879V899.8H418.706V918H415Z" transform="translate(-414.999 -867.997)" fill="#35477d"/>
    <path id="Path_56" data-name="Path 56" d="M506.433,928H418.621v-3.631h84.105Z" transform="translate(-414.999 -867.997)" fill="#f67280"/>
    <path id="Path_57" data-name="Path 57" d="M438.623,878.684h3.53V918h-3.53Z" transform="translate(-414.999 -867.997)" fill="#35477d"/>
    <path id="Path_58" data-name="Path 58" d="M476.088,889.861V917.3h-3.48v-4.716a15.136,15.136,0,0,1-4.98,4.06,13.914,13.914,0,0,1-15.989-2.862,14.165,14.165,0,0,1-4.123-10.276,13.905,13.905,0,0,1,4.161-10.138,13.569,13.569,0,0,1,10.012-4.211,12.949,12.949,0,0,1,6.115,1.437,13.923,13.923,0,0,1,4.8,4.312v-5.043Zm-14.109,2.7a10.642,10.642,0,0,0-9.408,5.517,11.114,11.114,0,0,0,.012,11.083,10.825,10.825,0,0,0,3.992,4.118,10.43,10.43,0,0,0,5.379,1.474,11.024,11.024,0,0,0,5.491-1.461,10.217,10.217,0,0,0,3.992-3.955,11.287,11.287,0,0,0,1.4-5.617,10.92,10.92,0,0,0-3.136-7.96A10.39,10.39,0,0,0,461.979,892.559Z" transform="translate(-414.999 -867.997)" fill="#35477d"/>
    <path id="Path_59" data-name="Path 59" d="M497.587,892.937l-2.27,2.346q-2.832-2.75-5.537-2.749a4.183,4.183,0,0,0-2.946,1.135,3.5,3.5,0,0,0-1.226,2.648,3.923,3.923,0,0,0,1.011,2.547,14.21,14.21,0,0,0,4.245,2.9,15.838,15.838,0,0,1,5.358,3.934,7.171,7.171,0,0,1,1.39,4.312,7.738,7.738,0,0,1-2.375,5.724,8.1,8.1,0,0,1-5.934,2.346,10.372,10.372,0,0,1-4.534-1.034,9.845,9.845,0,0,1-3.574-2.85l2.219-2.522q2.7,3.052,5.738,3.052a5.168,5.168,0,0,0,3.614-1.362,4.2,4.2,0,0,0,1.492-3.2,4.1,4.1,0,0,0-.986-2.7,15.85,15.85,0,0,0-4.447-2.925,14.258,14.258,0,0,1-5.055-3.783,7.125,7.125,0,0,1-1.339-4.262,6.933,6.933,0,0,1,2.134-5.2,7.437,7.437,0,0,1,5.393-2.068Q493.747,889.23,497.587,892.937Z" transform="translate(-414.999 -867.997)" fill="#35477d"/>
    <path id="Path_60" data-name="Path 60" d="M502.726,868h3.531v27.487a15,15,0,0,1,4.715-4.224,11.478,11.478,0,0,1,5.573-1.4,9.732,9.732,0,0,1,5.46,1.563,9.33,9.33,0,0,1,3.518,4.2q1.136,2.636,1.135,8.259V918h-3.531V904.916a33.493,33.493,0,0,0-.378-6.33,7.181,7.181,0,0,0-2.383-4.1,7.058,7.058,0,0,0-4.527-1.374,8.707,8.707,0,0,0-5.737,2.118,9.927,9.927,0,0,0-3.341,5.246,36.206,36.206,0,0,0-.5,7.464V918h-3.531Z" transform="translate(-414.999 -867.997)" fill="#35477d"/>
  </g>
</svg>
